<?xml version="1.0" encoding="UTF-8"?><svg id="Layer_1" xmlns="http://www.w3.org/2000/svg" viewBox="0 0 511.18 67.54"><defs><style>.cls-1{fill:#0068be;}.cls-2{fill:#00aff1;}</style></defs><path d="M169.32,34.16c0-18.72,14.88-33.38,34.4-33.38,10.5,0,19.88,4.2,26.55,11.46l-7.66,6.04c-4.92-5.28-11.59-8.14-18.92-8.14-13.72,0-24.46,10.17-24.46,24s10.73,24.06,24.46,24.06c7.58,0,14.15-2.89,19.16-8.28l7.75,5.88c-6.83,7.47-16.08,11.73-26.89,11.73-19.55,0-34.4-14.59-34.4-33.38Z"/><path d="M234.21,34.16c0-18.72,14.88-33.38,34.4-33.38,10.5,0,19.88,4.2,26.55,11.46l-7.66,6.04c-4.92-5.28-11.59-8.14-18.92-8.14-13.72,0-24.46,10.17-24.46,24s10.73,24.06,24.46,24.06c7.58,0,14.15-2.89,19.16-8.28l7.75,5.88c-6.83,7.47-16.08,11.73-26.89,11.73-19.55,0-34.4-14.59-34.4-33.38Z"/><path d="M304.96,1.9h50.54v9.07h-40.61v16.52l29.51.04v8.83h-29.51v21.01h40.66v9.12h-50.6V1.9Z"/><path d="M365.16,1.9h9.99l-.06,55.48h36.39v9.11h-46.33V1.9Z"/><path class="cls-2" d="M95.47.99l.31.17c4.04,2.18,5.51,7.23,3.29,11.3l-27.42,50.12c-2.22,4.06-7.3,5.59-11.34,3.42l-.31-.17c-4.04-2.18-5.51-7.23-3.29-11.3L84.13,4.41c2.22-4.06,7.3-5.59,11.34-3.42Z"/><path class="cls-1" d="M59.75,14.94h0c4.12,2.22,5.63,7.39,3.36,11.54l-19.7,36.01c-2.27,4.15-7.46,5.71-11.58,3.49h0c-4.12-2.22-5.63-7.39-3.36-11.54l19.7-36.01c2.27-4.15,7.46-5.71,11.58-3.49Z"/><path class="cls-1" d="M22.94,32.11h0c4.12,2.22,5.63,7.39,3.36,11.54l-10.3,18.83c-2.27,4.15-7.46,5.71-11.58,3.49h0c-4.12-2.22-5.63-7.39-3.36-11.54l10.3-18.83c2.27-4.15,7.46-5.71,11.58-3.49Z"/><path d="M495.03,58.53h-3.42v-1.03h8.19v1.03h-3.42v7.96h-1.35v-7.96Z"/><path d="M501.21,57.5h1.65l3.33,7.61,3.39-7.61h1.6v8.99h-1.23v-7.09l-3.25,7.09h-1.09l-3.19-7.07v7.07h-1.22v-8.99Z"/><path d="M134.97.77c.81,0,1.1.47,1.33.89.19.34,34.99,64.83,34.99,64.83h-10.74l-7.49-14.2h-36.36l-7.57,14.2h-10.97S133.48,2.08,133.7,1.66s.45-.89,1.27-.89ZM148.62,43.97s-12.98-24.56-13.14-24.86-.34-.41-.57-.41-.4.09-.56.38-13.22,24.89-13.22,24.89h27.49Z"/><path d="M453.89.77c.81,0,1.1.47,1.33.89.19.34,34.99,64.83,34.99,64.83h-10.74l-7.49-14.2h-36.36l-7.57,14.2h-10.97S452.4,2.08,452.62,1.66s.45-.89,1.27-.89ZM467.54,43.97s-12.98-24.56-13.14-24.86-.34-.41-.57-.41-.4.09-.56.38-13.22,24.89-13.22,24.89h27.49Z"/></svg>